<svg width="48" height="48" viewBox="0 0 48 48" fill="none" xmlns="http://www.w3.org/2000/svg">
<circle cx="24" cy="24" r="24" fill="#231D5A"/>
<path fill-rule="evenodd" clip-rule="evenodd" d="M24 16L13.3333 16.8889V27.5556L18.6666 28.4444L24 32L29.3333 28.4444L34.6666 27.5556V16.8889L24 16ZM19.9427 24.693C19.8032 24.5474 19.6855 24.3905 19.5896 24.2222C19.934 24.0221 20.1999 23.7355 20.3873 23.3626C20.5747 22.9851 20.6685 22.5439 20.6685 22.039C20.6685 21.5341 20.5747 21.0952 20.3873 20.7222C20.1999 20.3493 19.9296 20.0627 19.5765 19.8626C19.2278 19.6579 18.8159 19.5556 18.3408 19.5556C17.8656 19.5556 17.4515 19.6579 17.0984 19.8626C16.7497 20.0627 16.4795 20.3493 16.2877 20.7222C16.0959 21.0952 16 21.5341 16 22.039C16 22.5439 16.0937 22.9851 16.2811 23.3626C16.4729 23.7401 16.7454 24.0312 17.0984 24.2359C17.4515 24.436 17.8656 24.5361 18.3408 24.5361H18.4715C18.7549 25.0364 19.1363 25.4503 19.6158 25.7778L20.4331 25.1569C20.25 24.9977 20.0865 24.8431 19.9427 24.693ZM17.5234 23.1784C17.3273 22.9191 17.2292 22.5393 17.2292 22.039C17.2292 21.5432 17.3273 21.168 17.5234 20.9133C17.7196 20.6585 17.992 20.5312 18.3408 20.5312C18.6895 20.5312 18.9619 20.6608 19.1581 20.9201C19.3586 21.1748 19.4588 21.5478 19.4588 22.039C19.4588 22.5348 19.3586 22.9123 19.1581 23.1715C18.9619 23.4308 18.6895 23.5604 18.3408 23.5604C17.992 23.5604 17.7196 23.4331 17.5234 23.1784ZM21.9545 24.0039C22.3032 24.3587 22.8176 24.5361 23.4976 24.5361C24.1645 24.5361 24.6745 24.3564 25.0276 23.9971C25.385 23.6332 25.5638 23.1101 25.5638 22.4279V19.617H24.3541V22.4756C24.3541 22.8213 24.28 23.0897 24.1318 23.2807C23.9836 23.4672 23.7722 23.5604 23.4976 23.5604C23.2186 23.5604 23.0028 23.4672 22.8503 23.2807C22.7021 23.0942 22.628 22.8259 22.628 22.4756V19.617H21.4314V22.4279C21.4314 23.1192 21.6058 23.6446 21.9545 24.0039ZM26.4331 19.617H27.6623V24.4747H26.4331V19.617ZM32 24.4747V23.4717H29.8488L31.9281 20.538V19.617H28.4953V20.6199H30.5484L28.4953 23.54V24.4747H32Z" fill="white"/>
</svg>
