<svg width="48" height="48" viewBox="0 0 48 48" fill="none" xmlns="http://www.w3.org/2000/svg">
<circle cx="24" cy="24" r="24" fill="#231D5A"/>
<path fill-rule="evenodd" clip-rule="evenodd" d="M24 16L13.3333 16.8889V27.5556L18.6666 28.4444L24 32L29.3333 28.4444L34.6666 27.5556V16.8889L24 16ZM19.9427 24.693C19.8032 24.5474 19.6855 24.3905 19.5896 24.2222C19.934 24.0221 20.1999 23.7355 20.3873 23.3626C20.5747 22.9851 20.6685 22.5439 20.6685 22.039C20.6685 21.5341 20.5747 21.0952 20.3873 20.7222C20.1999 20.3493 19.9296 20.0627 19.5765 19.8626C19.2278 19.6579 18.8159 19.5556 18.3408 19.5556C17.8656 19.5556 17.4515 19.6579 17.0984 19.8626C16.7497 20.0627 16.4795 20.3493 16.2877 20.7222C16.0959 21.0952 16 21.5341 16 22.039C16 22.5439 16.0937 22.9851 16.2811 23.3626C16.4729 23.7401 16.7454 24.0312 17.0984 24.2359C17.4515 24.436 17.8656 24.5361 18.3408 24.5361H18.4715C18.7549 25.0364 19.1363 25.4503 19.6158 25.7778L20.4331 25.1569C20.25 24.9977 20.0865 24.8431 19.9427 24.693ZM17.5234 23.1784C17.3273 22.9191 17.2292 22.5393 17.2292 22.039C17.2292 21.5432 17.3273 21.168 17.5234 20.9133C17.7196 20.6585 17.992 20.5312 18.3408 20.5312C18.6895 20.5312 18.9619 20.6608 19.1581 20.9201C19.3586 21.1748 19.4588 21.5478 19.4588 22.039C19.4588 22.5348 19.3586 22.9123 19.1581 23.1715C18.9619 23.4308 18.6895 23.5604 18.3408 23.5604C17.992 23.5604 17.7196 23.4331 17.5234 23.1784ZM21.9545 24.0039C22.3032 24.3587 22.8176 24.5361 23.4976 24.5361C24.1645 24.5361 24.6745 24.3564 25.0276 23.9971C25.385 23.6332 25.5638 23.1101 25.5638 22.4279V19.617H24.3541V22.4756C24.3541 22.8213 24.28 23.0897 24.1318 23.2807C23.9836 23.4672 23.7722 23.5604 23.4976 23.5604C23.2186 23.5604 23.0028 23.4672 22.8503 23.2807C22.7021 23.0942 22.628 22.8259 22.628 22.4756V19.617H21.4314V22.4279C21.4314 23.1192 21.6058 23.6446 21.9545 24.0039ZM26.4331 19.617H27.6623V24.4747H26.4331V19.617ZM32 24.4747V23.4717H29.8488L31.9281 20.538V19.617H28.4953V20.6199H30.5484L28.4953 23.54V24.4747H32Z" fill="white"/>
<path fill-rule="evenodd" clip-rule="evenodd" d="M13.3333 16.8889L24 16L34.6666 16.8889V27.5556L29.3333 28.4444L24 32L18.6666 28.4444L13.3333 27.5556V16.8889Z" fill="white"/>
<path d="M19.192 24.4559C19.2873 24.6206 19.4043 24.7744 19.543 24.9174C19.686 25.0604 19.8485 25.2077 20.0305 25.3594L19.348 25.8794C18.893 25.5717 18.5268 25.1752 18.2495 24.6899C18.2105 24.6942 18.1563 24.6964 18.087 24.6964C17.6277 24.6964 17.2268 24.6011 16.8845 24.4104C16.5465 24.2154 16.2843 23.9381 16.098 23.5784C15.916 23.2187 15.825 22.7984 15.825 22.3174C15.825 21.8364 15.916 21.4182 16.098 21.0629C16.2843 20.7076 16.5465 20.4346 16.8845 20.2439C17.2268 20.0489 17.6277 19.9514 18.087 19.9514C18.5463 19.9514 18.945 20.0489 19.283 20.2439C19.621 20.4346 19.881 20.7076 20.063 21.0629C20.245 21.4182 20.336 21.8364 20.336 22.3174C20.336 22.8244 20.2363 23.2621 20.037 23.6304C19.8377 23.9987 19.556 24.2739 19.192 24.4559ZM16.8455 22.3174C16.8455 22.8331 16.9538 23.2274 17.1705 23.5004C17.3915 23.7691 17.697 23.9034 18.087 23.9034C18.477 23.9034 18.7803 23.7669 18.997 23.4939C19.218 23.2209 19.3285 22.8287 19.3285 22.3174C19.3285 21.8061 19.218 21.4161 18.997 21.1474C18.7803 20.8787 18.477 20.7444 18.087 20.7444C17.697 20.7444 17.3915 20.8787 17.1705 21.1474C16.9538 21.4161 16.8455 21.8061 16.8455 22.3174ZM23.1565 24.6964C22.5065 24.6964 22.0125 24.5296 21.6745 24.1959C21.3365 23.8622 21.1675 23.3726 21.1675 22.7269V20.0099H22.162V22.7724C22.162 23.1407 22.2465 23.4224 22.4155 23.6174C22.5888 23.8081 22.8358 23.9034 23.1565 23.9034C23.4772 23.9034 23.722 23.8081 23.891 23.6174C24.06 23.4224 24.1445 23.1407 24.1445 22.7724V20.0099H25.1455V22.7269C25.1455 23.3682 24.9743 23.8579 24.632 24.1959C24.294 24.5296 23.8022 24.6964 23.1565 24.6964ZM26.1081 20.0099H27.1221V24.6379H26.1081V20.0099ZM31.424 23.8384V24.6379H27.9855V23.8969L30.215 20.8094H27.9855V20.0099H31.3525V20.7444L29.1035 23.8384H31.424Z" fill="#231D5A"/>
<path d="M19.192 24.4559L19.1473 24.3665L19.0522 24.414L19.1055 24.506L19.192 24.4559ZM19.543 24.9174L19.4712 24.987L19.4723 24.9881L19.543 24.9174ZM20.0305 25.3594L20.0911 25.4389L20.1909 25.3629L20.0945 25.2826L20.0305 25.3594ZM19.348 25.8794L19.292 25.9622L19.3515 26.0025L19.4086 25.9589L19.348 25.8794ZM18.2495 24.6899L18.3363 24.6403L18.3037 24.5833L18.2385 24.5905L18.2495 24.6899ZM16.8845 24.4104L16.8345 24.497L16.8358 24.4978L16.8845 24.4104ZM16.098 23.5784L16.0088 23.6235L16.0092 23.6244L16.098 23.5784ZM16.098 21.0629L16.0094 21.0165L16.009 21.0173L16.098 21.0629ZM16.8845 20.2439L16.9336 20.331L16.934 20.3308L16.8845 20.2439ZM19.283 20.2439L19.233 20.3305L19.2339 20.331L19.283 20.2439ZM20.063 21.0629L19.974 21.1085L19.974 21.1085L20.063 21.0629ZM20.037 23.6304L20.1249 23.678L20.1249 23.678L20.037 23.6304ZM17.1705 23.5004L17.0922 23.5626L17.0933 23.5639L17.1705 23.5004ZM18.997 23.4939L18.9193 23.431L18.9187 23.4317L18.997 23.4939ZM18.997 21.1474L18.9192 21.2102L18.9198 21.2109L18.997 21.1474ZM17.1705 21.1474L17.0933 21.0839L17.0927 21.0846L17.1705 21.1474ZM19.1055 24.506C19.2051 24.6781 19.3271 24.8384 19.4712 24.987L19.6148 24.8478C19.4816 24.7104 19.3696 24.563 19.2785 24.4058L19.1055 24.506ZM19.4723 24.9881C19.6178 25.1336 19.7825 25.2829 19.9665 25.4362L20.0945 25.2826C19.9145 25.1325 19.7542 24.9872 19.6137 24.8467L19.4723 24.9881ZM19.9699 25.2799L19.2874 25.7999L19.4086 25.9589L20.0911 25.4389L19.9699 25.2799ZM19.404 25.7966C18.9619 25.4976 18.6062 25.1126 18.3363 24.6403L18.1627 24.7395C18.4475 25.2379 18.8241 25.6458 19.292 25.9622L19.404 25.7966ZM18.2385 24.5905C18.2049 24.5942 18.155 24.5964 18.087 24.5964V24.7964C18.1577 24.7964 18.2161 24.7942 18.2605 24.7893L18.2385 24.5905ZM18.087 24.5964C17.6417 24.5964 17.2582 24.5041 16.9332 24.323L16.8358 24.4978C17.1954 24.698 17.6136 24.7964 18.087 24.7964V24.5964ZM16.9345 24.3238C16.6137 24.1387 16.3647 23.8758 16.1868 23.5324L16.0092 23.6244C16.204 24.0004 16.4793 24.2921 16.8345 24.497L16.9345 24.3238ZM16.1872 23.5332C16.0136 23.19 15.925 22.7857 15.925 22.3174H15.725C15.725 22.8111 15.8184 23.2474 16.0088 23.6235L16.1872 23.5332ZM15.925 22.3174C15.925 21.849 16.0136 21.4471 16.187 21.1085L16.009 21.0173C15.8184 21.3894 15.725 21.8238 15.725 22.3174H15.925ZM16.1866 21.1093C16.3643 20.7705 16.613 20.5119 16.9336 20.331L16.8354 20.1568C16.48 20.3573 16.2044 20.6447 16.0094 21.0165L16.1866 21.1093ZM16.934 20.3308C17.2589 20.1457 17.6421 20.0514 18.087 20.0514V19.8514C17.6132 19.8514 17.1948 19.9521 16.835 20.157L16.934 20.3308ZM18.087 20.0514C18.5319 20.0514 18.9127 20.1457 19.233 20.3305L19.333 20.1573C18.9773 19.9521 18.5607 19.8514 18.087 19.8514V20.0514ZM19.2339 20.331C19.5543 20.5117 19.8007 20.7701 19.974 21.1085L20.152 21.0173C19.9613 20.6451 19.6877 20.3574 19.3321 20.1568L19.2339 20.331ZM19.974 21.1085C20.1474 21.4471 20.236 21.849 20.236 22.3174H20.436C20.436 21.8238 20.3426 21.3894 20.152 21.0173L19.974 21.1085ZM20.236 22.3174C20.236 22.8112 20.139 23.2319 19.9491 23.5828L20.1249 23.678C20.3337 23.2923 20.436 22.8375 20.436 22.3174H20.236ZM19.9491 23.5828C19.7592 23.9336 19.4924 24.1939 19.1473 24.3665L19.2367 24.5453C19.6196 24.3539 19.9161 24.0638 20.1249 23.678L19.9491 23.5828ZM16.7455 22.3174C16.7455 22.8452 16.8561 23.2652 17.0922 23.5626L17.2488 23.4382C17.0515 23.1896 16.9455 22.8209 16.9455 22.3174H16.7455ZM17.0933 23.5639C17.3357 23.8587 17.6712 24.0034 18.087 24.0034V23.8034C17.7228 23.8034 17.4473 23.6795 17.2477 23.4369L17.0933 23.5639ZM18.087 24.0034C18.5034 24.0034 18.8373 23.856 19.0753 23.5561L18.9187 23.4317C18.7234 23.6778 18.4506 23.8034 18.087 23.8034V24.0034ZM19.0747 23.5568C19.3154 23.2595 19.4285 22.8415 19.4285 22.3174H19.2285C19.2285 22.816 19.1206 23.1823 18.9193 23.431L19.0747 23.5568ZM19.4285 22.3174C19.4285 21.7934 19.3155 21.3772 19.0742 21.0839L18.9198 21.2109C19.1205 21.455 19.2285 21.8187 19.2285 22.3174H19.4285ZM19.0748 21.0846C18.8366 20.7892 18.5028 20.6444 18.087 20.6444V20.8444C18.4512 20.8444 18.7241 20.9683 18.9192 21.2102L19.0748 21.0846ZM18.087 20.6444C17.6712 20.6444 17.3357 20.7891 17.0933 21.0839L17.2477 21.2109C17.4473 20.9683 17.7228 20.8444 18.087 20.8444V20.6444ZM17.0927 21.0846C16.8562 21.3779 16.7455 21.7938 16.7455 22.3174H16.9455C16.9455 21.8183 17.0515 21.4543 17.2483 21.2102L17.0927 21.0846ZM21.6745 24.1959L21.7447 24.1247L21.7447 24.1247L21.6745 24.1959ZM21.1675 20.0099V19.9099H21.0675V20.0099H21.1675ZM22.162 20.0099H22.262V19.9099H22.162V20.0099ZM22.4155 23.6174L22.3399 23.6829L22.3415 23.6847L22.4155 23.6174ZM23.891 23.6174L23.9658 23.6837L23.9666 23.6829L23.891 23.6174ZM24.1445 20.0099V19.9099H24.0445V20.0099H24.1445ZM25.1455 20.0099H25.2455V19.9099H25.1455V20.0099ZM24.632 24.1959L24.7022 24.2671L24.7023 24.2671L24.632 24.1959ZM23.1565 24.5964C22.5229 24.5964 22.058 24.434 21.7447 24.1247L21.6042 24.2671C21.967 24.6252 22.4901 24.7964 23.1565 24.7964V24.5964ZM21.7447 24.1247C21.4318 23.8158 21.2675 23.3557 21.2675 22.7269H21.0675C21.0675 23.3894 21.2412 23.9086 21.6042 24.2671L21.7447 24.1247ZM21.2675 22.7269V20.0099H21.0675V22.7269H21.2675ZM21.1675 20.1099H22.162V19.9099H21.1675V20.1099ZM22.062 20.0099V22.7724H22.262V20.0099H22.062ZM22.062 22.7724C22.062 23.1546 22.1496 23.4633 22.3399 23.6829L22.4911 23.5519C22.3434 23.3815 22.262 23.1268 22.262 22.7724H22.062ZM22.3415 23.6847C22.5382 23.9011 22.815 24.0034 23.1565 24.0034V23.8034C22.8566 23.8034 22.6394 23.715 22.4895 23.5501L22.3415 23.6847ZM23.1565 24.0034C23.4978 24.0034 23.7731 23.9011 23.9658 23.6837L23.8162 23.5511C23.6708 23.715 23.4565 23.8034 23.1565 23.8034V24.0034ZM23.9666 23.6829C24.1569 23.4633 24.2445 23.1546 24.2445 22.7724H24.0445C24.0445 23.1268 23.9631 23.3815 23.8154 23.5519L23.9666 23.6829ZM24.2445 22.7724V20.0099H24.0445V22.7724H24.2445ZM24.1445 20.1099H25.1455V19.9099H24.1445V20.1099ZM25.0455 20.0099V22.7269H25.2455V20.0099H25.0455ZM25.0455 22.7269C25.0455 23.3507 24.8793 23.8111 24.5617 24.1247L24.7023 24.2671C25.0693 23.9046 25.2455 23.3857 25.2455 22.7269H25.0455ZM24.5617 24.1247C24.2484 24.4341 23.7855 24.5964 23.1565 24.5964V24.7964C23.8188 24.7964 24.3396 24.625 24.7022 24.2671L24.5617 24.1247ZM26.1081 20.0099V19.9099H26.0081V20.0099H26.1081ZM27.1221 20.0099H27.2221V19.9099H27.1221V20.0099ZM27.1221 24.6379V24.7379H27.2221V24.6379H27.1221ZM26.1081 24.6379H26.0081V24.7379H26.1081V24.6379ZM26.1081 20.1099H27.1221V19.9099H26.1081V20.1099ZM27.0221 20.0099V24.6379H27.2221V20.0099H27.0221ZM27.1221 24.5379H26.1081V24.7379H27.1221V24.5379ZM26.2081 24.6379V20.0099H26.0081V24.6379H26.2081ZM31.424 23.8384H31.524V23.7384H31.424V23.8384ZM31.424 24.6379V24.7379H31.524V24.6379H31.424ZM27.9855 24.6379H27.8855V24.7379H27.9855V24.6379ZM27.9855 23.8969L27.9044 23.8384L27.8855 23.8646V23.8969H27.9855ZM30.215 20.8094L30.2961 20.8679L30.4105 20.7094H30.215V20.8094ZM27.9855 20.8094H27.8855V20.9094H27.9855V20.8094ZM27.9855 20.0099V19.9099H27.8855V20.0099H27.9855ZM31.3525 20.0099H31.4525V19.9099H31.3525V20.0099ZM31.3525 20.7444L31.4334 20.8032L31.4525 20.7769V20.7444H31.3525ZM29.1035 23.8384L29.0226 23.7796L28.9072 23.9384H29.1035V23.8384ZM31.324 23.8384V24.6379H31.524V23.8384H31.324ZM31.424 24.5379H27.9855V24.7379H31.424V24.5379ZM28.0855 24.6379V23.8969H27.8855V24.6379H28.0855ZM28.0666 23.9554L30.2961 20.8679L30.1339 20.7509L27.9044 23.8384L28.0666 23.9554ZM30.215 20.7094H27.9855V20.9094H30.215V20.7094ZM28.0855 20.8094V20.0099H27.8855V20.8094H28.0855ZM27.9855 20.1099H31.3525V19.9099H27.9855V20.1099ZM31.2525 20.0099V20.7444H31.4525V20.0099H31.2525ZM31.2716 20.6856L29.0226 23.7796L29.1844 23.8972L31.4334 20.8032L31.2716 20.6856ZM29.1035 23.9384H31.424V23.7384H29.1035V23.9384Z" fill="#231D5A"/>
</svg>
