<svg width="38" height="38" viewBox="0 0 38 38" fill="none" xmlns="http://www.w3.org/2000/svg">
<path d="M28.514 6.46927H10.1682V33.4122H28.514V6.46927Z" fill="#456BFF"/>
<path d="M25.8329 10.4146H7.48706V16.1643H25.8329V10.4146Z" fill="#0FBC73"/>
<path d="M28.514 16.1643H10.1682V21.9141H28.514V16.1643Z" fill="#3444AC"/>
<path d="M31.3458 21.9141H13V27.6638H31.3458V21.9141Z" fill="#FF4545"/>
<path d="M28.514 27.6638H10.1682V33.4135H28.514V27.6638Z" fill="#3444AC"/>
<path d="M23.054 5H15.6272V7.93989H23.054V5Z" fill="#FFAB38"/>
<path d="M17.3914 13.7932H16.616L16.4613 14.2061H16L16.8172 12.2061H17.1804L18 14.2061H17.546L17.3914 13.7932ZM17.2417 13.3971L17.0037 12.7651L16.7656 13.3971H17.2417Z" fill="white"/>
<path d="M22.2046 26.2061C21.9604 26.2061 21.747 26.165 21.5644 26.0828C21.3839 25.9988 21.2442 25.881 21.1452 25.7294C21.0484 25.5778 21 25.4024 21 25.2034C21 25.0061 21.0484 24.8326 21.1452 24.6828C21.2442 24.5312 21.3839 24.4143 21.5644 24.3321C21.747 24.2481 21.9604 24.2061 22.2046 24.2061C22.3586 24.2061 22.5072 24.2253 22.6502 24.2636C22.7954 24.302 22.912 24.354 23 24.4198L22.8119 24.7842C22.6205 24.6691 22.4224 24.6116 22.2178 24.6116C22.0286 24.6116 21.8834 24.6618 21.7822 24.7623C21.681 24.8609 21.6304 25.0079 21.6304 25.2034C21.6304 25.4006 21.681 25.5495 21.7822 25.6499C21.8834 25.7504 22.0286 25.8006 22.2178 25.8006C22.4224 25.8006 22.6205 25.7431 22.8119 25.628L23 25.9924C22.912 26.0581 22.7954 26.1102 22.6502 26.1486C22.5072 26.1869 22.3586 26.2061 22.2046 26.2061Z" fill="white"/>
<path d="M18 29.2061H18.8674C19.1018 29.2061 19.3035 29.2464 19.4724 29.3269C19.6433 29.4055 19.7735 29.5198 19.8629 29.6696C19.9543 29.8194 20 29.9973 20 30.2033C20 30.4111 19.9553 30.5909 19.8659 30.7426C19.7765 30.8924 19.6463 31.0076 19.4754 31.0881C19.3065 31.1668 19.1038 31.2061 18.8674 31.2061H18V29.2061ZM18.8286 30.7847C19.0353 30.7847 19.1893 30.737 19.2906 30.6415C19.3939 30.5441 19.4456 30.398 19.4456 30.2033C19.4456 29.8194 19.2399 29.6274 18.8286 29.6274H18.5604V30.7847H18.8286Z" fill="white"/>
<path d="M19.5705 19.1696C19.7082 19.2033 19.8142 19.2632 19.8885 19.3494C19.9628 19.4336 20 19.5366 20 19.6583C20 19.7688 19.9661 19.8653 19.8984 19.9477C19.8306 20.0301 19.7333 20.0937 19.6066 20.1387C19.482 20.1836 19.3344 20.2061 19.1639 20.2061H18V18.2061H19.1344C19.3792 18.2061 19.5738 18.2529 19.718 18.3465C19.8623 18.4402 19.9344 18.5666 19.9344 18.7258C19.9344 18.8288 19.9027 18.9196 19.8393 18.9982C19.776 19.0769 19.6863 19.134 19.5705 19.1696ZM18.6 18.9898H19.0295C19.1432 18.9898 19.2262 18.9748 19.2787 18.9449C19.3311 18.9149 19.3574 18.8671 19.3574 18.8016C19.3574 18.7342 19.3301 18.6846 19.2754 18.6527C19.223 18.6209 19.141 18.605 19.0295 18.605H18.6V18.9898ZM19.0918 19.8072C19.2098 19.8072 19.294 19.7913 19.3443 19.7595C19.3967 19.7276 19.423 19.6743 19.423 19.5994C19.423 19.5226 19.3978 19.4683 19.3475 19.4364C19.2973 19.4046 19.212 19.3887 19.0918 19.3887H18.6V19.8072H19.0918Z" fill="white"/>
<path d="M7 17.2061H9V31.2061L8 33.2061L7 31.2061V17.2061Z" fill="#456BFF"/>
<path d="M7 19.2061H9V31.4561L8 33.2061L7 31.4561V19.2061Z" fill="#FFAB38"/>
</svg>
